<?xml version="1.0" encoding="UTF-8" standalone="no"?><svg xmlns="http://www.w3.org/2000/svg" xmlns:xlink="http://www.w3.org/1999/xlink" contentStyleType="text/css" height="787px" preserveAspectRatio="none" style="width:1124px;height:787px;background:#FFFFFF;" version="1.1" viewBox="0 0 1124 787" width="1124px" zoomAndPan="magnify"><defs/><g><rect fill="#FFFFFF" height="555.3906" style="stroke:#181818;stroke-width:1.0;" width="10" x="409.5" y="91.2969"/><rect fill="#FFFFFF" height="404.7266" style="stroke:#181818;stroke-width:1.0;" width="10" x="742.5" y="170.6953"/><rect fill="#E9967A" height="252.0625" style="stroke:#181818;stroke-width:1.0;" width="10" x="747.5" y="199.8281"/><line style="stroke:#181818;stroke-width:0.5;stroke-dasharray:5.0,5.0;" x1="46" x2="46" y1="81.2969" y2="706.8203"/><line style="stroke:#181818;stroke-width:0.5;stroke-dasharray:5.0,5.0;" x1="414.5" x2="414.5" y1="81.2969" y2="706.8203"/><line style="stroke:#181818;stroke-width:0.5;stroke-dasharray:5.0,5.0;" x1="747.5" x2="747.5" y1="81.2969" y2="706.8203"/><line style="stroke:#181818;stroke-width:0.5;stroke-dasharray:5.0,5.0;" x1="935.5" x2="935.5" y1="81.2969" y2="706.8203"/><line style="stroke:#181818;stroke-width:0.5;stroke-dasharray:5.0,5.0;" x1="1059.5" x2="1059.5" y1="81.2969" y2="706.8203"/><text fill="#000000" font-family="sans-serif" font-size="14" lengthAdjust="spacing" textLength="77" x="5" y="77.9951">Navigateur</text><ellipse cx="46.5" cy="13.5" fill="#E2E2F0" rx="8" ry="8" style="stroke:#181818;stroke-width:0.5;"/><path d="M46.5,21.5 L46.5,48.5 M33.5,29.5 L59.5,29.5 M46.5,48.5 L33.5,63.5 M46.5,48.5 L59.5,63.5 " fill="none" style="stroke:#181818;stroke-width:0.5;"/><text fill="#000000" font-family="sans-serif" font-size="14" lengthAdjust="spacing" textLength="77" x="5" y="718.8154">Navigateur</text><ellipse cx="46.5" cy="730.6172" fill="#E2E2F0" rx="8" ry="8" style="stroke:#181818;stroke-width:0.5;"/><path d="M46.5,738.6172 L46.5,765.6172 M33.5,746.6172 L59.5,746.6172 M46.5,765.6172 L33.5,780.6172 M46.5,765.6172 L59.5,780.6172 " fill="none" style="stroke:#181818;stroke-width:0.5;"/><rect fill="#E2E2F0" height="30.2969" rx="2.5" ry="2.5" style="stroke:#181818;stroke-width:0.5;" width="112" x="358.5" y="50"/><text fill="#000000" font-family="sans-serif" font-size="14" lengthAdjust="spacing" textLength="98" x="365.5" y="69.9951">Votre Service</text><rect fill="#E2E2F0" height="30.2969" rx="2.5" ry="2.5" style="stroke:#181818;stroke-width:0.5;" width="112" x="358.5" y="705.8203"/><text fill="#000000" font-family="sans-serif" font-size="14" lengthAdjust="spacing" textLength="98" x="365.5" y="725.8154">Votre Service</text><rect fill="#E2E2F0" height="30.2969" rx="2.5" ry="2.5" style="stroke:#181818;stroke-width:0.5;" width="132" x="681.5" y="50"/><text fill="#000000" font-family="sans-serif" font-size="14" lengthAdjust="spacing" textLength="118" x="688.5" y="69.9951">Authentification</text><rect fill="#E2E2F0" height="30.2969" rx="2.5" ry="2.5" style="stroke:#181818;stroke-width:0.5;" width="132" x="681.5" y="705.8203"/><text fill="#000000" font-family="sans-serif" font-size="14" lengthAdjust="spacing" textLength="118" x="688.5" y="725.8154">Authentification</text><rect fill="#E2E2F0" height="30.2969" rx="2.5" ry="2.5" style="stroke:#181818;stroke-width:0.5;" width="112" x="879.5" y="50"/><text fill="#000000" font-family="sans-serif" font-size="14" lengthAdjust="spacing" textLength="98" x="886.5" y="69.9951">Serveur email</text><rect fill="#E2E2F0" height="30.2969" rx="2.5" ry="2.5" style="stroke:#181818;stroke-width:0.5;" width="112" x="879.5" y="705.8203"/><text fill="#000000" font-family="sans-serif" font-size="14" lengthAdjust="spacing" textLength="98" x="886.5" y="725.8154">Serveur email</text><rect fill="#E2E2F0" height="30.2969" rx="2.5" ry="2.5" style="stroke:#181818;stroke-width:0.5;" width="117" x="1001.5" y="50"/><text fill="#000000" font-family="sans-serif" font-size="14" lengthAdjust="spacing" textLength="103" x="1008.5" y="69.9951">Serveur Tchap</text><rect fill="#E2E2F0" height="30.2969" rx="2.5" ry="2.5" style="stroke:#181818;stroke-width:0.5;" width="117" x="1001.5" y="705.8203"/><text fill="#000000" font-family="sans-serif" font-size="14" lengthAdjust="spacing" textLength="103" x="1008.5" y="725.8154">Serveur Tchap</text><rect fill="#FFFFFF" height="555.3906" style="stroke:#181818;stroke-width:1.0;" width="10" x="409.5" y="91.2969"/><rect fill="#FFFFFF" height="404.7266" style="stroke:#181818;stroke-width:1.0;" width="10" x="742.5" y="170.6953"/><rect fill="#E9967A" height="252.0625" style="stroke:#181818;stroke-width:1.0;" width="10" x="747.5" y="199.8281"/><polygon fill="#181818" points="397.5,108.4297,407.5,112.4297,397.5,116.4297,401.5,112.4297" style="stroke:#181818;stroke-width:1.0;"/><line style="stroke:#181818;stroke-width:1.0;" x1="46.5" x2="403.5" y1="112.4297" y2="112.4297"/><text fill="#000000" font-family="sans-serif" font-size="13" font-weight="bold" lengthAdjust="spacing" textLength="9" x="53.5" y="107.3638">1</text><text fill="#000000" font-family="sans-serif" font-size="13" lengthAdjust="spacing" textLength="159" x="66.5" y="107.3638">Clique pour se connecter</text><polygon fill="#181818" points="57.5,137.5625,47.5,141.5625,57.5,145.5625,53.5,141.5625" style="stroke:#181818;stroke-width:1.0;"/><line style="stroke:#181818;stroke-width:1.0;stroke-dasharray:2.0,2.0;" x1="51.5" x2="408.5" y1="141.5625" y2="141.5625"/><text fill="#000000" font-family="sans-serif" font-size="13" font-weight="bold" lengthAdjust="spacing" textLength="9" x="63.5" y="136.4966">2</text><text fill="#000000" font-family="sans-serif" font-size="13" lengthAdjust="spacing" textLength="189" x="76.5" y="136.4966">Redirige vers Authentification</text><polygon fill="#181818" points="57.5,166.6953,47.5,170.6953,57.5,174.6953,53.5,170.6953" style="stroke:#181818;stroke-width:1.0;"/><line style="stroke:#181818;stroke-width:1.0;" x1="51.5" x2="741.5" y1="170.6953" y2="170.6953"/><text fill="#000000" font-family="sans-serif" font-size="13" font-weight="bold" lengthAdjust="spacing" textLength="8" x="63.5" y="165.6294">3</text><text fill="#000000" font-family="sans-serif" font-size="13" lengthAdjust="spacing" textLength="225" x="75.5" y="165.6294">Affiche un formulaire de connexion</text><polygon fill="#181818" points="735.5,195.8281,745.5,199.8281,735.5,203.8281,739.5,199.8281" style="stroke:#181818;stroke-width:1.0;"/><line style="stroke:#181818;stroke-width:1.0;" x1="46.5" x2="741.5" y1="199.8281" y2="199.8281"/><text fill="#000000" font-family="sans-serif" font-size="13" font-weight="bold" lengthAdjust="spacing" textLength="9" x="53.5" y="194.7622">4</text><text fill="#000000" font-family="sans-serif" font-size="13" lengthAdjust="spacing" textLength="249" x="66.5" y="194.7622">Soumet le formulaire conetnant l'email</text><polygon fill="#181818" points="1048,224.9609,1058,228.9609,1048,232.9609,1052,228.9609" style="stroke:#181818;stroke-width:1.0;"/><line style="stroke:#181818;stroke-width:1.0;" x1="757.5" x2="1054" y1="228.9609" y2="228.9609"/><text fill="#000000" font-family="sans-serif" font-size="13" font-weight="bold" lengthAdjust="spacing" textLength="9" x="764.5" y="223.895">5</text><text fill="#000000" font-family="sans-serif" font-size="13" lengthAdjust="spacing" textLength="144" x="777.5" y="223.895">Vérifie l'adresse mail ?</text><polygon fill="#181818" points="768.5,254.0938,758.5,258.0938,768.5,262.0938,764.5,258.0938" style="stroke:#181818;stroke-width:1.0;"/><line style="stroke:#181818;stroke-width:1.0;stroke-dasharray:2.0,2.0;" x1="762.5" x2="1059" y1="258.0938" y2="258.0938"/><text fill="#000000" font-family="sans-serif" font-size="13" font-weight="bold" lengthAdjust="spacing" textLength="9" x="774.5" y="253.0278">6</text><text fill="#000000" font-family="sans-serif" font-size="13" lengthAdjust="spacing" textLength="15" x="787.5" y="253.0278">ok</text><polygon fill="#181818" points="1048,283.2266,1058,287.2266,1048,291.2266,1052,287.2266" style="stroke:#181818;stroke-width:1.0;"/><line style="stroke:#181818;stroke-width:1.0;" x1="757.5" x2="1054" y1="287.2266" y2="287.2266"/><text fill="#000000" font-family="sans-serif" font-size="13" font-weight="bold" lengthAdjust="spacing" textLength="9" x="764.5" y="282.1606">7</text><text fill="#000000" font-family="sans-serif" font-size="13" lengthAdjust="spacing" textLength="153" x="777.5" y="282.1606">envoie l'otp  (dm tchap)</text><polygon fill="#181818" points="923.5,312.3594,933.5,316.3594,923.5,320.3594,927.5,316.3594" style="stroke:#181818;stroke-width:1.0;"/><line style="stroke:#181818;stroke-width:1.0;" x1="757.5" x2="929.5" y1="316.3594" y2="316.3594"/><text fill="#000000" font-family="sans-serif" font-size="13" font-weight="bold" lengthAdjust="spacing" textLength="9" x="764.5" y="311.2935">8</text><text fill="#000000" font-family="sans-serif" font-size="13" lengthAdjust="spacing" textLength="123" x="777.5" y="311.2935">envoie l'otp (email)</text><polygon fill="#181818" points="57.5,341.4922,47.5,345.4922,57.5,349.4922,53.5,345.4922" style="stroke:#181818;stroke-width:1.0;"/><line style="stroke:#181818;stroke-width:1.0;stroke-dasharray:2.0,2.0;" x1="51.5" x2="746.5" y1="345.4922" y2="345.4922"/><text fill="#000000" font-family="sans-serif" font-size="13" font-weight="bold" lengthAdjust="spacing" textLength="9" x="63.5" y="340.4263">9</text><text fill="#000000" font-family="sans-serif" font-size="13" lengthAdjust="spacing" textLength="232" x="76.5" y="340.4263">Affiche le formulaire de login via otp</text><polygon fill="#181818" points="735.5,370.625,745.5,374.625,735.5,378.625,739.5,374.625" style="stroke:#181818;stroke-width:1.0;"/><line style="stroke:#181818;stroke-width:1.0;" x1="46.5" x2="741.5" y1="374.625" y2="374.625"/><text fill="#000000" font-family="sans-serif" font-size="13" font-weight="bold" lengthAdjust="spacing" textLength="19" x="53.5" y="369.5591">10</text><text fill="#000000" font-family="sans-serif" font-size="13" lengthAdjust="spacing" textLength="74" x="76.5" y="369.5591">envoie l'otp</text><line style="stroke:#181818;stroke-width:1.0;" x1="757.5" x2="799.5" y1="403.7578" y2="403.7578"/><line style="stroke:#181818;stroke-width:1.0;" x1="799.5" x2="799.5" y1="403.7578" y2="416.7578"/><line style="stroke:#181818;stroke-width:1.0;" x1="758.5" x2="799.5" y1="416.7578" y2="416.7578"/><polygon fill="#181818" points="768.5,412.7578,758.5,416.7578,768.5,420.7578,764.5,416.7578" style="stroke:#181818;stroke-width:1.0;"/><text fill="#000000" font-family="sans-serif" font-size="13" font-weight="bold" lengthAdjust="spacing" textLength="18" x="764.5" y="398.6919">11</text><text fill="#000000" font-family="sans-serif" font-size="13" lengthAdjust="spacing" textLength="69" x="786.5" y="398.6919">valide l'otp</text><line style="stroke:#181818;stroke-width:1.0;" x1="757.5" x2="799.5" y1="450.8906" y2="450.8906"/><line style="stroke:#181818;stroke-width:1.0;" x1="799.5" x2="799.5" y1="450.8906" y2="463.8906"/><line style="stroke:#181818;stroke-width:1.0;" x1="752.5" x2="799.5" y1="463.8906" y2="463.8906"/><polygon fill="#181818" points="762.5,459.8906,752.5,463.8906,762.5,467.8906,758.5,463.8906" style="stroke:#181818;stroke-width:1.0;"/><text fill="#000000" font-family="sans-serif" font-size="13" font-weight="bold" lengthAdjust="spacing" textLength="18" x="764.5" y="445.8247">12</text><text fill="#000000" font-family="sans-serif" font-size="13" lengthAdjust="spacing" textLength="137" x="786.5" y="445.8247">Utilisateur authentifié</text><polygon fill="#181818" points="57.5,484.0234,47.5,488.0234,57.5,492.0234,53.5,488.0234" style="stroke:#181818;stroke-width:1.0;"/><line style="stroke:#181818;stroke-width:1.0;stroke-dasharray:2.0,2.0;" x1="51.5" x2="741.5" y1="488.0234" y2="488.0234"/><text fill="#000000" font-family="sans-serif" font-size="13" font-weight="bold" lengthAdjust="spacing" textLength="17" x="63.5" y="482.9575">13</text><text fill="#000000" font-family="sans-serif" font-size="13" lengthAdjust="spacing" textLength="220" x="84.5" y="482.9575">redirigé avec un paramètre "code"</text><polygon fill="#181818" points="397.5,513.1563,407.5,517.1563,397.5,521.1563,401.5,517.1563" style="stroke:#181818;stroke-width:1.0;"/><line style="stroke:#181818;stroke-width:1.0;" x1="46.5" x2="403.5" y1="517.1563" y2="517.1563"/><text fill="#000000" font-family="sans-serif" font-size="13" font-weight="bold" lengthAdjust="spacing" textLength="18" x="53.5" y="512.0903">14</text><text fill="#000000" font-family="sans-serif" font-size="13" lengthAdjust="spacing" textLength="317" x="75.5" y="512.0903">redirigé vers le service avec un paramètre "code"</text><polygon fill="#181818" points="730.5,542.2891,740.5,546.2891,730.5,550.2891,734.5,546.2891" style="stroke:#181818;stroke-width:1.0;"/><line style="stroke:#181818;stroke-width:1.0;" x1="419.5" x2="736.5" y1="546.2891" y2="546.2891"/><text fill="#000000" font-family="sans-serif" font-size="13" font-weight="bold" lengthAdjust="spacing" textLength="18" x="426.5" y="541.2231">15</text><text fill="#000000" font-family="sans-serif" font-size="13" lengthAdjust="spacing" textLength="155" x="448.5" y="541.2231">échange du code "code"</text><polygon fill="#181818" points="430.5,571.4219,420.5,575.4219,430.5,579.4219,426.5,575.4219" style="stroke:#181818;stroke-width:1.0;"/><line style="stroke:#181818;stroke-width:1.0;stroke-dasharray:2.0,2.0;" x1="424.5" x2="746.5" y1="575.4219" y2="575.4219"/><text fill="#000000" font-family="sans-serif" font-size="13" font-weight="bold" lengthAdjust="spacing" textLength="18" x="436.5" y="570.356">16</text><text fill="#000000" font-family="sans-serif" font-size="13" lengthAdjust="spacing" textLength="140" x="458.5" y="570.356">return "access_token"</text><line style="stroke:#181818;stroke-width:1.0;" x1="419.5" x2="461.5" y1="604.5547" y2="604.5547"/><line style="stroke:#181818;stroke-width:1.0;" x1="461.5" x2="461.5" y1="604.5547" y2="617.5547"/><line style="stroke:#181818;stroke-width:1.0;" x1="420.5" x2="461.5" y1="617.5547" y2="617.5547"/><polygon fill="#181818" points="430.5,613.5547,420.5,617.5547,430.5,621.5547,426.5,617.5547" style="stroke:#181818;stroke-width:1.0;"/><text fill="#000000" font-family="sans-serif" font-size="13" font-weight="bold" lengthAdjust="spacing" textLength="18" x="426.5" y="599.4888">17</text><text fill="#000000" font-family="sans-serif" font-size="13" lengthAdjust="spacing" textLength="287" x="448.5" y="599.4888">Création d'une session avec l'"access_token"</text><polygon fill="#181818" points="57.5,642.6875,47.5,646.6875,57.5,650.6875,53.5,646.6875" style="stroke:#181818;stroke-width:1.0;"/><line style="stroke:#181818;stroke-width:1.0;" x1="51.5" x2="413.5" y1="646.6875" y2="646.6875"/><text fill="#000000" font-family="sans-serif" font-size="13" font-weight="bold" lengthAdjust="spacing" textLength="18" x="63.5" y="641.6216">18</text><text fill="#000000" font-family="sans-serif" font-size="13" lengthAdjust="spacing" textLength="238" x="85.5" y="641.6216">Affichage d'une page avec la session</text><line style="stroke:#181818;stroke-width:1.0;" x1="46.5" x2="88.5" y1="675.8203" y2="675.8203"/><line style="stroke:#181818;stroke-width:1.0;" x1="88.5" x2="88.5" y1="675.8203" y2="688.8203"/><line style="stroke:#181818;stroke-width:1.0;" x1="47.5" x2="88.5" y1="688.8203" y2="688.8203"/><polygon fill="#181818" points="57.5,684.8203,47.5,688.8203,57.5,692.8203,53.5,688.8203" style="stroke:#181818;stroke-width:1.0;"/><text fill="#000000" font-family="sans-serif" font-size="13" font-weight="bold" lengthAdjust="spacing" textLength="18" x="53.5" y="670.7544">19</text><text fill="#000000" font-family="sans-serif" font-size="13" lengthAdjust="spacing" textLength="176" x="75.5" y="670.7544">mettre la session en cookie</text><!--SRC=[XLJBajem4BpxAwR8WTq3Fq2bajfApZc4PA_Kh3J05BRao9AJJug_mp-MaRp6bddaPd1FJq_J3Ifl7Rmv-xiX1zZ0wXksV4HFmQsA6frdnJKQ3nWqMsND8Q5UhNS4Et8jAyg1NfsmthDEk9VWJsGy7rYXPsjoA5N8vLusj-_B8w5i7bxSehs1_H5Vh0eCtffGlP4h2bIUMxbX4bsC9su-pIxPmfUIVmM2sWfHGo3V6b9UE2RGHaR6wIry9ysEZmGYeu7bUSNb-6pevI204q4mSB2k2YMokAVVz_s9WnV98yDSyOLr2piRAl9Gqfn9QCYRw5AvJjPTqy67h-ZEEoohXShCrosyzfsJSqYOK3jgn9H829-deO-RpNBAdXznacbjOhI-1dZIrG1upcQoB2ncdjBBvuibauBaoMXlRehOMzeZ6sWPGLZk63fVTEE8X6cnPFqVp4_F9JUfE9AmCHPzLsXw_6FSESeDGUixm9PKZ8wq0Ql-RopUIbajjRiJwcaqXLHiQOQYFg2QvJqxg-_asKZUTO28lCPVwVR16LYXKfAUlRTdajRVC25VcPNIzLsg4-XrC55zqyHFINsvNb1dDClEOLIUIEhuE33Wo3YNTVElOgAJqaMtfba9ZXXYpqp_0000]--></g></svg>