<svg width="80" height="80" viewBox="0 0 800 800" fill="none" xmlns="http://www.w3.org/2000/svg">
<g clip-path="url(#clip0_1_3)">
<path d="M200 670.2C200 544.1 350 569.333 350 518.9C351.677 500.991 346.823 483.079 336.333 468.467C324.371 457.125 314.948 443.376 308.685 428.127C302.422 412.879 299.462 396.476 300 380C298.372 351.744 307.964 323.988 326.69 302.765C345.415 281.543 371.761 268.57 400 266.667C428.239 268.57 454.585 281.543 473.31 302.765C492.036 323.988 501.628 351.744 500 380C500.6 396.524 497.619 412.983 491.261 428.247C484.903 443.512 475.319 457.22 463.167 468.433C453.099 483.238 448.449 501.064 450 518.9C450 569.333 600 544.133 600 670.233C600 670.233 560.167 700.033 400 700.033C239.833 700.033 200 670.2 200 670.2Z" stroke="#6a6af4" stroke-opacity="1" stroke-width="50" stroke-miterlimit="10"/>
<path d="M182.867 532.233C163.9 531.367 147.167 530.067 132.467 528.433C97.9629 527.748 64.0655 519.234 33.3333 503.533C33.3333 377.433 183.333 402.667 183.333 352.233C185.01 334.324 180.156 316.412 169.667 301.8C157.704 290.458 148.281 276.709 142.018 261.461C135.756 246.212 132.796 229.809 133.333 213.333C131.706 185.077 141.297 157.321 160.023 136.099C178.749 114.876 205.095 101.903 233.333 100C261.572 101.903 287.918 114.876 306.644 136.099C325.369 157.321 334.961 185.077 333.333 213.333" stroke="#6a6af4" stroke-opacity="1" stroke-width="50" stroke-miterlimit="10"/>
<path d="M617.133 532.233C636.1 531.367 652.833 530.067 667.533 528.433C702.037 527.748 735.935 519.234 766.667 503.533C766.667 377.433 616.667 402.667 616.667 352.233C614.99 334.324 619.844 316.412 630.333 301.8C642.296 290.458 651.719 276.709 657.982 261.461C664.244 246.212 667.204 229.809 666.667 213.333C668.294 185.077 658.703 157.321 639.977 136.099C621.251 114.876 594.905 101.903 566.667 100C538.428 101.903 512.082 114.876 493.356 136.099C474.631 157.321 465.039 185.077 466.667 213.333" stroke="#6a6af4" stroke-opacity="1" stroke-width="50" stroke-miterlimit="10"/>
</g>
<defs>
<clipPath id="clip0_1_3">
<rect width="800" height="800" fill="white"/>
</clipPath>
</defs>
</svg>
